<svg xmlns="http://www.w3.org/2000/svg" xmlns:xlink="http://www.w3.org/1999/xlink" viewBox="0 0 2000 2000"><defs><style>.cls-1{fill:url(#Degradado_sin_nombre_59);}.cls-2{fill:url(#Degradado_sin_nombre_67);}.cls-3{fill:url(#Degradado_sin_nombre_54);}.cls-4{fill:url(#Degradado_sin_nombre_74);}</style><linearGradient id="Degradado_sin_nombre_59" x1="918.2" y1="129" x2="918.2" y2="1779.67" gradientUnits="userSpaceOnUse"><stop offset="0.24" stop-color="#63acb1"/><stop offset="0.4" stop-color="#60a9b0"/><stop offset="1" stop-color="#216494"/></linearGradient><linearGradient id="Degradado_sin_nombre_67" x1="1109.36" y1="931.67" x2="1109.36" y2="1841.59" gradientUnits="userSpaceOnUse"><stop offset="0" stop-color="#96b535"/><stop offset="1" stop-color="#3b8239"/></linearGradient><linearGradient id="Degradado_sin_nombre_54" x1="1195.86" y1="129" x2="1195.86" y2="1219.67" gradientUnits="userSpaceOnUse"><stop offset="0" stop-color="#2597a3"/><stop offset="1" stop-color="#157a99"/></linearGradient><linearGradient id="Degradado_sin_nombre_74" x1="1150.14" y1="1840.32" x2="1150.14" y2="931.67" gradientUnits="userSpaceOnUse"><stop offset="0" stop-color="#00a444"/><stop offset="0" stop-color="#2f462d"/><stop offset="1" stop-color="#72a363"/></linearGradient></defs><title>Mesa de trabajo 2</title><g id="Layer_2" data-name="Layer 2"><path class="cls-1" d="M975.16,129,537,889s-336,610.67,130.67,890.67c0,0-81-464,307.49-560,0,0,476.51-96,439.17-325.34Z"/><path class="cls-2" d="M1433,931.67s55,231.11-457.84,323.55c0,0-306.6,53.34-276.38,544,0,0,403.55-115.55,560-312.89,0,0-186.67,311.11-485.34,346.67C773.44,1833,1829.44,1993,1433,931.67Z"/><path class="cls-3" d="M975.16,129s407.5,980,0,1090.67c0,0,477.84-97.34,439.17-325.34Z"/><path class="cls-4" d="M1433,931.67S1580.56,1452.56,773.44,1833C773.44,1833,1843.67,1982.33,1433,931.67Z"/></g></svg>