<svg xmlns="http://www.w3.org/2000/svg" xmlns:xlink="http://www.w3.org/1999/xlink" viewBox="0 0 2000 2000"><defs><style>.cls-1{fill:#5ba8b2;}.cls-2{fill:#82ad3d;}.cls-3{fill:url(#Degradado_sin_nombre_92);}.cls-4{fill:#517249;}</style><linearGradient id="Degradado_sin_nombre_92" x1="1195.86" y1="1219.67" x2="1195.86" y2="129" gradientUnits="userSpaceOnUse"><stop offset="0" stop-color="#00a444"/><stop offset="0" stop-color="#13588f"/><stop offset="0" stop-color="#157a99"/><stop offset="1" stop-color="#2898a3"/></linearGradient></defs><title>Mesa de trabajo 2</title><g id="Layer_2" data-name="Layer 2"><path class="cls-1" d="M975.16,129,537,889s-336,610.67,130.67,890.67c0,0-81-464,307.49-560,0,0,476.51-96,439.17-325.34Z"/><path class="cls-2" d="M1433,931.67s55,231.11-457.84,323.55c0,0-306.6,53.34-276.38,544,0,0,403.55-115.55,560-312.89,0,0-177.08,295.11-462.24,343.33,9,1.39,18,3.09,27.05,4.4,18.25,2.64,36.87,2.18,55.25,1.69,18.57-.49,37.17-1,55.76-1a132.43,132.43,0,0,1,13.51.39c4.88.49,9.65,1.78,14.55,2.15a46.56,46.56,0,0,0,13.5-1.25,5,5,0,0,1,1.94-.44c3.62-.84,7.23-1.8,10.9-2.5a5,5,0,0,1,4.68,1.45c10.19-1.33,20.27-3.62,30.49-5,14.4-1.9,29.06-1.72,43.52-3.31q10.59-1.15,21.09-2.79a4.23,4.23,0,0,1,3.34-2.82c28.75-6.17,58-10.82,86.27-19.14l.47-.15q4-1.32,7.91-2.69c7.86-2.94,15.52-6.39,23.56-8.74,3.67-1.45,7.34-2.91,11-4.42,12.12-5,24.16-10.21,36.26-15.28,12.61-5.29,25.5-9.9,37.68-16.18,21.64-11.13,39.18-28.75,62.2-37.4a4.24,4.24,0,0,1,3.27,0C1513.81,1597,1595.65,1367.11,1433,931.67Z"/><path class="cls-3" d="M975.16,129s407.5,980,0,1090.67c0,0,477.84-97.34,439.17-325.34Z"/><path class="cls-4" d="M1433,931.67S1580.56,1452.56,773.44,1833C773.44,1833,1843.67,1982.33,1433,931.67Z"/></g></svg>