<svg xmlns="http://www.w3.org/2000/svg" xmlns:xlink="http://www.w3.org/1999/xlink" viewBox="0 0 2000 2000"><defs><style>.cls-1{font-size:200px;font-family:Roboto-Light, Roboto;font-weight:300;}.cls-1,.cls-3{fill:#fff;}.cls-2{letter-spacing:-0.01em;}.cls-3{font-size:240px;font-family:Roboto-Bold, Roboto;font-weight:700;}.cls-4{letter-spacing:0.01em;}.cls-5{letter-spacing:-0.01em;}.cls-6{fill:#5ba8b2;}.cls-7{fill:#82ad3d;}.cls-8{fill:url(#Degradado_sin_nombre_2);}.cls-9{fill:#517249;}</style><linearGradient id="Degradado_sin_nombre_2" x1="-328.93" y1="3472.58" x2="-328.93" y2="3966.65" gradientTransform="matrix(1, 0, 0, -1, 702.34, 4579.04)" gradientUnits="userSpaceOnUse"><stop offset="0" stop-color="#00a444"/><stop offset="0" stop-color="#13588f"/><stop offset="0" stop-color="#157a99"/><stop offset="1" stop-color="#2898a3"/></linearGradient></defs><title>Mesa de trabajo 2</title><g id="Layer_1" data-name="Layer 1"><text class="cls-1" transform="translate(602.22 755.1)">Limpieza &amp;<tspan x="0" y="300">Mantenimien</tspan><tspan class="cls-2" x="1147.56" y="300">t</tspan><tspan x="1209.86" y="300">o</tspan></text><text class="cls-3" transform="translate(602.22 1386.27)"><tspan class="cls-4">M</tspan><tspan class="cls-5" x="212.34" y="0">A</tspan><tspan x="371.37" y="0">CARE</tspan><tspan class="cls-4" x="978.05" y="0">N</tspan><tspan x="1149.61" y="0">A</tspan></text></g><g id="Layer_2" data-name="Layer 2"><g id="Layer_2-2" data-name="Layer 2"><path class="cls-6" d="M273.44,612.39,75,956.67s-152.21,276.63,59.19,403.47c0,0-36.69-210.19,139.3-253.68,0,0,215.85-43.49,198.94-147.38Z"/><path class="cls-7" d="M480.84,976s24.91,104.69-207.4,146.56c0,0-138.89,24.17-125.2,246.43,0,0,182.8-52.34,253.68-141.73,0,0-80.22,133.68-209.4,155.52,4.08.63,8.16,1.4,12.26,2,8.26,1.19,16.7,1,25,.76s16.84-.45,25.26-.45a56.79,56.79,0,0,1,6.12.18c2.21.22,4.37.8,6.59,1a21,21,0,0,0,6.12-.57,2.4,2.4,0,0,1,.88-.2c1.64-.38,3.27-.81,4.94-1.13a2.3,2.3,0,0,1,2.12.66c4.61-.6,9.18-1.64,13.81-2.27,6.52-.86,13.16-.77,19.71-1.5,3.2-.34,6.38-.76,9.56-1.26a1.93,1.93,0,0,1,1.51-1.28c13-2.79,26.27-4.9,39.08-8.67l.21-.06c1.21-.4,2.4-.81,3.59-1.22,3.56-1.34,7-2.9,10.67-4,1.66-.66,3.32-1.32,5-2,5.49-2.27,10.95-4.63,16.43-6.93,5.71-2.39,11.55-4.48,17.07-7.33,9.8-5,17.74-13,28.17-16.94a1.9,1.9,0,0,1,1.48,0C517.44,1277.39,554.52,1173.25,480.84,976Z"/><path class="cls-8" d="M273.44,612.39s184.59,443.94,0,494.07c0,0,216.46-44.09,198.94-147.38Z"/><path class="cls-9" d="M480.84,976s66.84,236-298.78,408.3C182.06,1384.3,666.87,1451.94,480.84,976Z"/></g></g></svg>