<?xml version="1.0" encoding="UTF-8" standalone="no"?>
<!-- Created with Inkscape (http://www.inkscape.org/) -->

<svg
   width="594mm"
   height="420mm"
   viewBox="0 0 594 420"
   version="1.1"
   id="svg165"
   inkscape:version="1.1 (c68e22c387, 2021-05-23)"
   sodipodi:docname="ME LA SACO.svg"
   xmlns:inkscape="http://www.inkscape.org/namespaces/inkscape"
   xmlns:sodipodi="http://sodipodi.sourceforge.net/DTD/sodipodi-0.dtd"
   xmlns="http://www.w3.org/2000/svg"
   xmlns:svg="http://www.w3.org/2000/svg">
  <sodipodi:namedview
     id="namedview167"
     pagecolor="#ffffff"
     bordercolor="#666666"
     borderopacity="1.0"
     inkscape:pageshadow="2"
     inkscape:pageopacity="0.0"
     inkscape:pagecheckerboard="0"
     inkscape:document-units="mm"
     showgrid="false"
     inkscape:zoom="0.37059484"
     inkscape:cx="492.45154"
     inkscape:cy="743.39945"
     inkscape:window-width="2560"
     inkscape:window-height="1017"
     inkscape:window-x="-8"
     inkscape:window-y="-8"
     inkscape:window-maximized="1"
     inkscape:current-layer="layer1" />
  <defs
     id="defs162">
    <style
       id="style457">.cls-1{font-size:200px;font-family:Roboto-Thin, Roboto;font-weight:200;}.cls-1,.cls-3{fill:#fff;}.cls-2{letter-spacing:-0.01em;}.cls-3{font-size:240px;font-family:Roboto-Bold, Roboto;font-weight:700;}.cls-4{letter-spacing:0.01em;}.cls-5{letter-spacing:-0.01em;}.cls-6{fill:#5ba8b2;}.cls-7{fill:#82ad3d;}.cls-8{fill:url(#Degradado_sin_nombre_2);}.cls-9{fill:#517249;}</style>
    <linearGradient
       id="Degradado_sin_nombre_2"
       x1="-349.82"
       y1="3472.58"
       x2="-349.82"
       y2="3863.39"
       gradientTransform="matrix(1,0,0,-1,702.34,4579.04)"
       gradientUnits="userSpaceOnUse">
      <stop
         offset="0"
         stop-color="#00a444"
         id="stop459" />
      <stop
         offset="0"
         stop-color="#13588f"
         id="stop461" />
      <stop
         offset="0"
         stop-color="#157a99"
         id="stop463" />
      <stop
         offset="1"
         stop-color="#2898a3"
         id="stop465" />
    </linearGradient>
  </defs>
  <g
     inkscape:label="Capa 1"
     inkscape:groupmode="layer"
     id="layer1">
    <g
       id="g530"
       transform="matrix(0.32691589,0,0,0.32781036,-20.12855,-129.08431)">
      <g
         id="Layer_1"
         data-name="Layer 1">
        <text
           class="cls-1"
           transform="translate(550.88,854.11)"
           id="text478">Limpieza &amp;<tspan
   x="0"
   y="222"
   id="tspan472">Mantenimien</tspan><tspan
   class="cls-2"
   x="1132.03"
   y="222"
   id="tspan474">t</tspan><tspan
   x="1193.36"
   y="222"
   id="tspan476">o</tspan></text>
        <text
           class="cls-3"
           transform="translate(550.88,1327.79)"
           id="text490"><tspan
             class="cls-4"
             id="tspan480">M</tspan><tspan
             class="cls-5"
             x="212.34"
             y="0"
             id="tspan482">A</tspan><tspan
             x="371.37"
             y="0"
             id="tspan484">CARE</tspan><tspan
             class="cls-4"
             x="978.04999"
             y="0"
             id="tspan486">N</tspan><tspan
             x="1149.61"
             y="0"
             id="tspan488">A</tspan></text>
      </g>
      <g
         id="Layer_2"
         data-name="Layer 2">
        <g
           id="Layer_2-2"
           data-name="Layer 2">
          <path
             class="cls-6"
             d="M 273.44,715.65 116.43,988 c 0,0 -120.43,218.79 46.83,319.12 0,0 -29,-166.26 110.18,-200.66 0,0 170.74,-34.4 157.36,-116.58 z"
             id="path493" />
          <path
             class="cls-7"
             d="m 437.49,1003.26 c 0,0 19.71,82.81 -164,115.94 0,0 -109.87,19.11 -99,194.93 0,0 144.6,-41.41 200.66,-112.12 0,0 -63.45,105.75 -165.63,123 3.23,0.5 6.45,1.11 9.7,1.58 6.53,1 13.21,0.78 19.79,0.61 6.58,-0.17 13.32,-0.36 20,-0.36 a 45.94,45.94 0 0 1 4.84,0.14 c 1.75,0.17 3.46,0.64 5.22,0.77 a 16.72,16.72 0 0 0 4.83,-0.45 1.88,1.88 0 0 1 0.7,-0.16 c 1.3,-0.3 2.59,-0.64 3.91,-0.89 a 1.77,1.77 0 0 1 1.67,0.52 c 3.65,-0.48 7.27,-1.3 10.93,-1.8 5.16,-0.68 10.41,-0.61 15.59,-1.18 q 3.8,-0.42 7.56,-1 a 1.52,1.52 0 0 1 1.2,-1 c 10.3,-2.21 20.78,-3.88 30.91,-6.86 h 0.17 c 0.95,-0.32 1.9,-0.64 2.83,-1 2.82,-1.05 5.56,-2.29 8.44,-3.13 1.32,-0.52 2.63,-1 3.95,-1.58 4.34,-1.79 8.65,-3.66 13,-5.48 4.52,-1.89 9.14,-3.55 13.5,-5.8 7.75,-4 14,-10.3 22.29,-13.4 a 1.58,1.58 0 0 1 1.17,0 c 54.73,-42.87 84.05,-125.25 25.77,-281.28 z"
             id="path495" />
          <path
             class="cls-8"
             d="m 273.44,715.65 c 0,0 146,351.15 0,390.81 0,0 171.22,-34.88 157.36,-116.58 z"
             id="path497"
             style="fill:url(#Degradado_sin_nombre_2)" />
          <path
             class="cls-9"
             d="m 437.49,1003.26 c 0,0 52.88,186.65 -236.33,323 0,-0.03 383.48,53.48 236.33,-323 z"
             id="path499" />
        </g>
      </g>
    </g>
  </g>
</svg>
